<svg data-v-fde0c5aa="" xmlns="http://www.w3.org/2000/svg" viewBox="0 0 300 300" class="iconLeftSlogan"><!----><defs data-v-fde0c5aa=""><!----></defs><rect data-v-fde0c5aa="" fill="#002C73" x="0" y="0" width="300px" height="300px" class="logo-background-square"></rect><defs data-v-fde0c5aa=""><!----></defs><g data-v-fde0c5aa="" id="cbee1ca5-d4a5-4f7a-8294-f79a1a0ab455" fill="#ffffff" transform="matrix(3.0742104443671856,0,0,3.0742104443671856,102.38522718604167,116.42080565716005)"><path d="M12.93 13.00L8.46 13.00L8.46 12.25L8.59 12.25Q8.81 12.25 8.98 12.22Q9.15 12.20 9.26 12.11Q9.37 12.03 9.42 11.88Q9.47 11.72 9.47 11.47L9.47 11.47L9.47 4.38L6.65 13.00L5.70 13.00L2.74 4.38L2.74 11.34Q2.74 11.64 2.81 11.82Q2.88 12.00 3.02 12.09Q3.15 12.19 3.34 12.22Q3.53 12.25 3.78 12.25L3.78 12.25L3.86 12.25L3.86 13.00L0.39 13.00L0.39 12.25L0.98 12.25Q1.13 12.25 1.26 12.22Q1.39 12.20 1.49 12.11Q1.59 12.02 1.64 11.86Q1.70 11.69 1.70 11.42L1.70 11.42L1.70 4.59Q1.70 4.31 1.64 4.15Q1.59 3.98 1.49 3.89Q1.39 3.80 1.26 3.77Q1.13 3.74 0.98 3.74L0.98 3.74L0.39 3.74L0.39 3.00L4.42 3.00L6.75 9.76L8.98 3.00L12.93 3.00L12.93 3.74L12.35 3.74Q12.20 3.74 12.07 3.77Q11.94 3.80 11.84 3.90Q11.74 3.99 11.69 4.17Q11.63 4.35 11.63 4.65L11.63 4.65L11.63 11.34Q11.63 11.64 11.69 11.82Q11.74 12.00 11.84 12.09Q11.94 12.19 12.07 12.22Q12.20 12.25 12.35 12.25L12.35 12.25L12.93 12.25L12.93 13.00ZM22.32 13.00L19.53 13.00L19.22 12.00L19.15 12.00Q18.94 12.37 18.70 12.59Q18.45 12.81 18.17 12.93Q17.89 13.05 17.58 13.09Q17.27 13.13 16.94 13.13L16.94 13.13Q15.85 13.13 15.26 12.46Q14.68 11.78 14.68 10.36L14.68 10.36L14.68 7.23Q14.68 6.92 14.62 6.73Q14.57 6.54 14.45 6.43Q14.33 6.32 14.15 6.28Q13.97 6.23 13.72 6.23L13.72 6.23L13.69 6.23L13.69 5.49L16.80 5.49L16.80 9.97Q16.80 10.42 16.85 10.79Q16.91 11.15 17.03 11.41Q17.15 11.66 17.36 11.80Q17.56 11.94 17.87 11.94L17.87 11.94Q18.20 11.94 18.45 11.80Q18.69 11.65 18.84 11.37Q19.00 11.09 19.07 10.70Q19.14 10.31 19.14 9.82L19.14 9.82L19.14 7.13Q19.14 6.82 19.06 6.64Q18.98 6.47 18.84 6.37Q18.70 6.28 18.52 6.26Q18.33 6.23 18.13 6.23L18.13 6.23L18.09 6.23L18.09 5.49L21.27 5.49L21.27 11.37Q21.27 11.68 21.34 11.85Q21.41 12.02 21.53 12.11Q21.66 12.20 21.83 12.23Q22.00 12.25 22.20 12.25L22.20 12.25L22.32 12.25L22.32 13.00ZM25.90 13.13L25.90 13.13Q25.14 13.13 24.61 13.01Q24.07 12.89 23.73 12.67Q23.39 12.45 23.24 12.15Q23.08 11.85 23.08 11.50L23.08 11.50Q23.08 11.16 23.22 10.95Q23.35 10.74 23.55 10.62Q23.75 10.51 23.98 10.47Q24.21 10.43 24.39 10.43L24.39 10.43Q24.39 10.87 24.50 11.22Q24.61 11.57 24.81 11.81Q25.01 12.05 25.28 12.18Q25.56 12.31 25.90 12.31L25.90 12.31Q26.26 12.31 26.53 12.24Q26.79 12.16 26.96 12.03Q27.13 11.89 27.21 11.72Q27.29 11.55 27.29 11.35L27.29 11.35Q27.29 11.12 27.20 10.94Q27.12 10.76 26.92 10.60Q26.72 10.44 26.39 10.28Q26.06 10.13 25.57 9.96L25.57 9.96Q25.00 9.76 24.56 9.54Q24.13 9.32 23.83 9.03Q23.54 8.75 23.38 8.38Q23.23 8.02 23.23 7.55L23.23 7.55Q23.23 6.99 23.44 6.57Q23.66 6.15 24.06 5.88Q24.45 5.60 25.01 5.46Q25.56 5.33 26.24 5.33L26.24 5.33Q26.90 5.33 27.36 5.44Q27.83 5.55 28.12 5.74Q28.42 5.92 28.55 6.15Q28.69 6.38 28.69 6.62L28.69 6.62Q28.69 7.10 28.36 7.34Q28.03 7.59 27.26 7.59L27.26 7.59Q27.26 6.89 26.95 6.50Q26.64 6.12 26.03 6.12L26.03 6.12Q25.81 6.12 25.60 6.17Q25.39 6.23 25.23 6.34Q25.08 6.45 24.99 6.61Q24.90 6.77 24.90 6.99L24.90 6.99Q24.90 7.21 24.98 7.39Q25.07 7.57 25.28 7.73Q25.50 7.89 25.87 8.05Q26.24 8.22 26.81 8.42L26.81 8.42Q27.28 8.58 27.67 8.79Q28.06 9.00 28.35 9.27Q28.63 9.54 28.79 9.88Q28.94 10.23 28.94 10.67L28.94 10.67Q28.94 11.25 28.74 11.71Q28.54 12.17 28.15 12.48Q27.76 12.80 27.19 12.96Q26.63 13.13 25.90 13.13ZM30.70 3.22L30.70 3.22Q30.70 2.95 30.79 2.76Q30.88 2.57 31.05 2.45Q31.21 2.33 31.42 2.27Q31.64 2.21 31.89 2.21L31.89 2.21Q32.13 2.21 32.35 2.27Q32.57 2.33 32.73 2.45Q32.89 2.57 32.99 2.76Q33.09 2.95 33.09 3.22L33.09 3.22Q33.09 3.48 32.99 3.67Q32.89 3.86 32.73 3.99Q32.57 4.11 32.35 4.17Q32.13 4.23 31.89 4.23L31.89 4.23Q31.64 4.23 31.42 4.17Q31.21 4.11 31.05 3.99Q30.88 3.86 30.79 3.67Q30.70 3.48 30.70 3.22ZM29.74 12.25L29.90 12.25Q30.06 12.25 30.23 12.22Q30.41 12.19 30.55 12.09Q30.70 12.00 30.80 11.82Q30.90 11.64 30.90 11.34L30.90 11.34L30.90 7.09Q30.90 6.81 30.80 6.64Q30.70 6.47 30.55 6.38Q30.40 6.29 30.23 6.26Q30.05 6.23 29.90 6.23L29.90 6.23L29.74 6.23L29.74 5.49L33.02 5.49L33.02 11.34Q33.02 11.64 33.12 11.82Q33.22 12.00 33.37 12.09Q33.52 12.19 33.69 12.22Q33.87 12.25 34.02 12.25L34.02 12.25L34.19 12.25L34.19 13.00L29.74 13.00L29.74 12.25ZM43.33 12.25L43.33 13.00L43.13 13.00Q42.37 13.00 41.85 12.96Q41.33 12.93 40.95 12.80Q40.58 12.68 40.30 12.43Q40.03 12.18 39.76 11.75L39.76 11.75L38.51 9.79L37.95 10.21L37.95 11.34Q37.95 11.64 38.05 11.82Q38.15 12.00 38.30 12.09Q38.45 12.19 38.62 12.22Q38.80 12.25 38.95 12.25L38.95 12.25L39.12 12.25L39.12 13.00L34.67 13.00L34.67 12.25L34.83 12.25Q34.99 12.25 35.16 12.22Q35.33 12.19 35.48 12.09Q35.63 12.00 35.73 11.82Q35.83 11.64 35.83 11.34L35.83 11.34L35.83 3.95Q35.83 3.67 35.73 3.50Q35.63 3.34 35.48 3.24Q35.33 3.15 35.15 3.12Q34.98 3.10 34.83 3.10L34.83 3.10L34.67 3.10L34.67 2.36L37.95 2.36L37.95 7.76Q37.95 7.95 37.94 8.20Q37.93 8.45 37.92 8.67L37.92 8.67Q37.90 8.94 37.88 9.21L37.88 9.21L39.65 7.24Q39.88 6.98 39.95 6.83Q40.02 6.67 40.02 6.57L40.02 6.57Q40.02 6.39 39.84 6.29Q39.65 6.19 39.30 6.19L39.30 6.19L39.30 5.49L42.83 5.49L42.83 6.19Q42.34 6.19 41.87 6.48Q41.41 6.76 40.85 7.38L40.85 7.38L39.97 8.39L41.83 11.16Q42.20 11.72 42.57 11.98Q42.95 12.25 43.29 12.25L43.29 12.25L43.33 12.25ZM46.14 10.91L46.14 10.91Q46.14 11.51 46.33 11.81Q46.52 12.11 46.93 12.11L46.93 12.11Q47.23 12.11 47.47 11.99Q47.71 11.86 47.89 11.63Q48.06 11.40 48.16 11.06Q48.25 10.73 48.25 10.32L48.25 10.32L48.25 9.27L47.62 9.31Q47.20 9.33 46.92 9.44Q46.63 9.56 46.46 9.75Q46.29 9.95 46.21 10.24Q46.14 10.53 46.14 10.91ZM47.38 6.17L47.38 6.17Q47.11 6.17 46.93 6.28Q46.75 6.39 46.64 6.59Q46.53 6.79 46.49 7.07Q46.44 7.35 46.44 7.68L46.44 7.68Q45.50 7.68 45.02 7.46Q44.55 7.25 44.55 6.74L44.55 6.74Q44.55 6.36 44.78 6.08Q45.01 5.81 45.40 5.64Q45.79 5.47 46.32 5.39Q46.84 5.31 47.43 5.31L47.43 5.31Q48.17 5.31 48.72 5.44Q49.27 5.56 49.64 5.84Q50.00 6.13 50.19 6.58Q50.37 7.03 50.37 7.69L50.37 7.69L50.37 11.26Q50.37 11.55 50.42 11.74Q50.46 11.93 50.56 12.04Q50.65 12.15 50.82 12.20Q50.98 12.25 51.21 12.25L51.21 12.25L51.27 12.25L51.27 13.00L48.67 13.00L48.37 12.03L48.25 12.03Q48.02 12.31 47.81 12.52Q47.61 12.73 47.37 12.87Q47.14 13.00 46.85 13.07Q46.56 13.13 46.16 13.13L46.16 13.13Q45.70 13.13 45.30 13.00Q44.90 12.86 44.60 12.57Q44.30 12.29 44.13 11.86Q43.96 11.44 43.96 10.86L43.96 10.86Q43.96 9.71 44.74 9.17Q45.53 8.62 47.10 8.57L47.10 8.57L48.25 8.53L48.25 7.76Q48.25 7.41 48.22 7.12Q48.19 6.82 48.10 6.61Q48.02 6.40 47.84 6.28Q47.67 6.17 47.38 6.17Z"></path></g><defs data-v-fde0c5aa=""><!----></defs><g data-v-fde0c5aa="" id="22712c92-5b11-464a-a429-11c95c2d5444" stroke="none" fill="#FFD009" transform="matrix(2.2135553418713894,0,0,2.2135553418713894,29.875198128045614,114.58311453005777)"><path d="M27.377 11.377L16 0 4.623 11.377 16 22.753l11.377-11.376zM16 6.026l5.35 5.35L16 16.727l-5.35-5.35L16 6.026zM27.426 14.969l-5.664 5.664V32h5.664zM10.238 20.633l-5.664-5.664V32h5.664z"></path></g><defs data-v-fde0c5aa=""><!----></defs><g data-v-fde0c5aa="" id="a4be99ab-45ae-435a-8fb6-181c52d8afbd" fill="#ffffff" transform="matrix(0.5592871607649859,0,0,0.5592871607649859,102.79557442897615,164.1397608624307)"><path d="M10.54 5.74L10.54 5.74Q10.58 5.98 10.61 6.07Q10.63 6.16 10.63 6.31L10.63 6.31Q10.63 6.78 10.42 7.18Q10.22 7.57 9.87 7.74L9.87 7.74Q9.59 7.36 9.18 7.09Q8.78 6.82 8.29 6.64Q7.81 6.47 7.29 6.38Q6.78 6.30 6.29 6.30L6.29 6.30Q5.80 6.30 5.37 6.38Q4.94 6.45 4.61 6.59Q4.28 6.72 4.09 6.92Q3.91 7.11 3.91 7.36L3.91 7.36Q3.95 7.67 4.28 7.99Q4.62 8.30 5.11 8.60Q5.60 8.90 6.20 9.20Q6.79 9.49 7.36 9.76L7.36 9.76Q8.08 10.09 8.60 10.38Q9.11 10.67 9.45 11.01Q9.79 11.35 9.95 11.79Q10.12 12.22 10.12 12.84L10.12 12.84Q10.12 13.55 9.88 14.18Q9.65 14.80 9.19 15.26Q8.74 15.72 8.09 15.98Q7.45 16.24 6.65 16.24L6.65 16.24Q5.87 16.24 4.96 16.00Q4.05 15.76 3.25 15.35Q2.46 14.94 1.94 14.40Q1.41 13.86 1.41 13.26L1.41 13.26Q1.41 12.98 1.57 12.54Q1.74 12.11 2.16 11.63L2.16 11.63Q2.20 12.05 2.61 12.63Q3.02 13.20 3.85 13.69L3.85 13.69Q4.62 14.14 5.44 14.34Q6.26 14.55 6.97 14.55L6.97 14.55Q7.76 14.55 8.25 14.35Q8.74 14.15 9.02 13.88Q9.30 13.61 9.41 13.33Q9.52 13.05 9.53 12.88L9.53 12.88Q9.52 12.60 9.28 12.34Q9.03 12.08 8.62 11.84Q8.20 11.59 7.66 11.34Q7.11 11.09 6.52 10.84L6.52 10.84Q5.64 10.44 5.00 10.10Q4.37 9.76 3.96 9.40Q3.54 9.04 3.35 8.65Q3.16 8.26 3.16 7.76L3.16 7.76Q3.16 6.97 3.64 6.27Q4.12 5.57 5.01 5.21L5.01 5.21Q5.46 5.01 5.97 4.93Q6.48 4.84 6.97 4.84L6.97 4.84Q7.90 4.84 8.78 5.10Q9.66 5.35 10.54 5.74ZM23.70 14.36L23.70 14.36Q23.70 13.78 23.90 12.85Q24.09 11.93 24.42 10.88L24.42 10.88Q23.49 10.95 22.56 11.06Q21.63 11.17 20.94 11.19L20.94 11.19Q20.31 12.66 19.94 13.89Q19.57 15.13 19.36 16.31L19.36 16.31Q18.83 16.18 18.48 15.87Q18.13 15.55 17.84 15.08L17.84 15.08Q17.95 14.85 18.09 14.50Q18.24 14.15 18.45 13.66Q18.65 13.16 18.91 12.50Q19.17 11.83 19.50 10.95L19.50 10.95Q19.04 10.75 18.89 10.40L18.89 10.40Q18.96 10.35 19.20 10.28Q19.45 10.22 19.81 10.15L19.81 10.15L19.99 9.70Q20.29 8.95 20.48 8.43Q20.66 7.91 20.80 7.41Q20.93 6.92 21.05 6.31Q21.17 5.71 21.34 4.79L21.34 4.79Q21.92 4.90 22.41 5.31Q22.89 5.71 23.24 6.29L23.24 6.29Q23.11 6.45 22.93 6.79Q22.75 7.13 22.53 7.59Q22.32 8.06 22.06 8.64Q21.81 9.23 21.52 9.87L21.52 9.87Q22.39 9.76 23.27 9.66Q24.16 9.56 24.85 9.52L24.85 9.52Q25.10 8.79 25.38 8.10Q25.65 7.41 25.91 6.83Q26.18 6.26 26.42 5.82Q26.67 5.39 26.87 5.18L26.87 5.18Q27.01 5.19 27.24 5.29Q27.47 5.38 27.71 5.50Q27.94 5.63 28.14 5.78Q28.34 5.92 28.41 6.05L28.41 6.05Q28.15 6.29 27.90 6.66Q27.65 7.04 27.41 7.53Q27.16 8.02 26.92 8.60Q26.68 9.17 26.47 9.79L26.47 9.79Q26.75 10.04 26.75 10.42L26.75 10.42Q26.75 10.68 26.64 10.91L26.64 10.91Q26.52 10.88 26.39 10.87Q26.26 10.86 26.12 10.85L26.12 10.85Q25.89 11.61 25.69 12.35Q25.49 13.09 25.36 13.76Q25.23 14.43 25.15 14.99Q25.07 15.55 25.07 15.93L25.07 15.93Q25.07 16.07 25.08 16.16Q25.09 16.24 25.10 16.30L25.10 16.30Q24.79 16.28 24.65 16.19Q24.51 16.10 24.44 16.00Q24.37 15.89 24.32 15.79Q24.26 15.68 24.14 15.62L24.14 15.62Q24.04 15.58 23.95 15.43Q23.87 15.27 23.81 15.08Q23.76 14.88 23.73 14.69Q23.70 14.49 23.70 14.36ZM41.15 4.98L41.15 4.98Q41.41 5.10 41.69 5.27Q41.97 5.45 42.21 5.63Q42.45 5.81 42.61 5.98Q42.77 6.16 42.78 6.27L42.78 6.27Q42.55 6.22 42.31 6.20Q42.07 6.17 41.87 6.17L41.87 6.17Q41.24 6.17 40.62 6.48Q40.00 6.79 39.44 7.32Q38.88 7.85 38.40 8.57Q37.93 9.28 37.58 10.09Q37.24 10.91 37.04 11.77Q36.85 12.64 36.85 13.48L36.85 13.48Q36.85 14.57 37.21 15.11Q37.58 15.64 38.28 15.64L38.28 15.64Q38.61 15.64 39.00 15.51Q39.40 15.37 39.80 15.13Q40.21 14.90 40.60 14.56Q40.99 14.22 41.33 13.82L41.33 13.82Q41.82 13.23 42.21 12.48Q42.60 11.73 42.88 10.89Q43.15 10.05 43.30 9.16Q43.44 8.27 43.44 7.42L43.44 7.42Q43.44 7.08 43.43 6.85Q43.41 6.62 43.39 6.46Q43.37 6.30 43.36 6.20Q43.34 6.10 43.33 6.03L43.33 6.03Q43.50 6.12 43.70 6.24Q43.90 6.36 44.08 6.59Q44.25 6.82 44.37 7.20Q44.49 7.57 44.49 8.18L44.49 8.18Q44.49 9.16 44.26 10.10Q44.03 11.05 43.62 11.90Q43.20 12.75 42.64 13.50Q42.08 14.24 41.44 14.80L41.44 14.80Q40.60 15.54 39.65 15.95Q38.70 16.35 37.81 16.35L37.81 16.35Q36.53 16.35 35.85 15.53Q35.17 14.71 35.17 13.12L35.17 13.12Q35.17 12.26 35.36 11.31Q35.55 10.36 35.89 9.44Q36.23 8.51 36.71 7.68Q37.18 6.85 37.75 6.21Q38.32 5.57 38.97 5.19Q39.62 4.82 40.31 4.82L40.31 4.82Q40.53 4.82 40.73 4.85Q40.92 4.89 41.15 4.98ZM61.35 7.63L61.35 7.63Q61.35 8.40 60.96 9.10Q60.58 9.80 59.93 10.32Q59.28 10.85 58.40 11.16Q57.53 11.47 56.55 11.47L56.55 11.47Q56.20 11.47 55.99 11.38Q55.79 11.28 55.54 11.02L55.54 11.02Q54.84 12.54 54.40 13.82Q53.96 15.11 53.70 16.31L53.70 16.31Q53.17 16.18 52.84 15.87Q52.50 15.55 52.22 15.08L52.22 15.08Q52.36 14.81 52.56 14.38Q52.75 13.94 53.03 13.31Q53.31 12.67 53.68 11.78Q54.05 10.89 54.56 9.70L54.56 9.70Q54.78 9.16 54.95 8.75Q55.12 8.34 55.24 7.99Q55.37 7.63 55.48 7.28Q55.58 6.93 55.69 6.51L55.69 6.51Q55.03 6.72 54.48 7Q53.93 7.28 53.56 7.59L53.56 7.59Q53.44 7.50 53.30 7.34Q53.17 7.17 53.06 6.96Q52.95 6.76 52.86 6.55Q52.78 6.34 52.77 6.17L52.77 6.17Q53.17 5.89 53.77 5.66Q54.38 5.42 55.06 5.24Q55.75 5.07 56.48 4.97Q57.22 4.87 57.89 4.87L57.89 4.87Q58.69 4.87 59.33 5.07Q59.98 5.28 60.42 5.64Q60.87 6.01 61.11 6.51Q61.35 7.01 61.35 7.63ZM58.86 5.95L58.86 5.95Q58.32 5.95 57.76 6.03L57.76 6.03L57.93 6.29Q57.79 6.47 57.58 6.83Q57.37 7.20 57.12 7.71Q56.87 8.22 56.57 8.85Q56.27 9.48 55.93 10.18L55.93 10.18Q57.02 10.18 57.92 9.97Q58.81 9.77 59.45 9.41Q60.09 9.06 60.45 8.58Q60.80 8.11 60.80 7.56L60.80 7.56Q60.80 6.83 60.31 6.39Q59.82 5.95 58.86 5.95ZM66.98 15.71L66.98 15.71Q66.75 15.68 66.51 15.52Q66.26 15.36 66.19 15.16L66.19 15.16Q66.19 14.99 66.24 14.73Q66.29 14.46 66.36 14.19Q66.43 13.92 66.50 13.67Q66.57 13.43 66.60 13.30L66.60 13.30Q66.77 13.30 67.03 13.38Q67.28 13.47 67.56 13.62Q67.83 13.76 68.08 13.95Q68.32 14.14 68.45 14.34L68.45 14.34Q68.32 14.62 68.12 14.87Q67.93 15.12 67.71 15.31Q67.49 15.50 67.30 15.60Q67.10 15.71 66.98 15.71ZM96.47 5.74L96.47 5.74Q96.52 5.98 96.54 6.07Q96.56 6.16 96.56 6.31L96.56 6.31Q96.56 6.78 96.35 7.18Q96.15 7.57 95.80 7.74L95.80 7.74Q95.52 7.36 95.12 7.09Q94.71 6.82 94.23 6.64Q93.74 6.47 93.23 6.38Q92.71 6.30 92.22 6.30L92.22 6.30Q91.73 6.30 91.30 6.38Q90.87 6.45 90.54 6.59Q90.22 6.72 90.03 6.92Q89.84 7.11 89.84 7.36L89.84 7.36Q89.88 7.67 90.22 7.99Q90.55 8.30 91.04 8.60Q91.53 8.90 92.13 9.20Q92.72 9.49 93.30 9.76L93.30 9.76Q94.01 10.09 94.53 10.38Q95.05 10.67 95.38 11.01Q95.72 11.35 95.89 11.79Q96.05 12.22 96.05 12.84L96.05 12.84Q96.05 13.55 95.82 14.18Q95.58 14.80 95.12 15.26Q94.67 15.72 94.02 15.98Q93.38 16.24 92.58 16.24L92.58 16.24Q91.80 16.24 90.89 16.00Q89.98 15.76 89.19 15.35Q88.40 14.94 87.87 14.40Q87.35 13.86 87.35 13.26L87.35 13.26Q87.35 12.98 87.51 12.54Q87.67 12.11 88.09 11.63L88.09 11.63Q88.13 12.05 88.54 12.63Q88.96 13.20 89.78 13.69L89.78 13.69Q90.55 14.14 91.37 14.34Q92.19 14.55 92.90 14.55L92.90 14.55Q93.69 14.55 94.18 14.35Q94.67 14.15 94.95 13.88Q95.23 13.61 95.34 13.33Q95.45 13.05 95.47 12.88L95.47 12.88Q95.45 12.60 95.21 12.34Q94.96 12.08 94.55 11.84Q94.14 11.59 93.59 11.34Q93.04 11.09 92.46 10.84L92.46 10.84Q91.57 10.44 90.94 10.10Q90.30 9.76 89.89 9.40Q89.47 9.04 89.28 8.65Q89.10 8.26 89.10 7.76L89.10 7.76Q89.10 6.97 89.57 6.27Q90.05 5.57 90.94 5.21L90.94 5.21Q91.39 5.01 91.90 4.93Q92.41 4.84 92.90 4.84L92.90 4.84Q93.83 4.84 94.71 5.10Q95.59 5.35 96.47 5.74ZM109.96 16.21L109.96 16.21Q109.93 16.23 109.90 16.23Q109.87 16.23 109.79 16.23L109.79 16.23Q109.59 16.23 109.33 16.16Q109.07 16.10 108.83 16.01Q108.58 15.92 108.41 15.81Q108.23 15.69 108.19 15.61L108.19 15.61Q108.18 15.41 108.18 15.20Q108.18 14.99 108.18 14.80L108.18 14.80Q108.18 13.23 108.41 11.52Q108.64 9.81 109.17 7.83L109.17 7.83Q109.23 7.63 109.29 7.33Q109.35 7.03 109.42 6.68L109.42 6.68Q109.09 6.94 108.63 7.53Q108.16 8.11 107.65 8.90Q107.14 9.69 106.63 10.63Q106.12 11.58 105.70 12.55Q105.28 13.52 104.98 14.48Q104.68 15.43 104.61 16.24L104.61 16.24Q103.94 16.04 103.68 15.85Q103.42 15.65 103.42 15.37L103.42 15.37Q103.42 15.12 103.57 14.66Q103.73 14.20 104.01 13.57Q104.29 12.94 104.69 12.16Q105.10 11.38 105.59 10.49L105.59 10.49Q106.15 9.46 106.69 8.57Q107.23 7.67 107.74 6.94Q108.26 6.22 108.76 5.68Q109.26 5.15 109.75 4.87L109.75 4.87Q109.94 4.87 110.27 4.97Q110.60 5.07 110.91 5.21Q111.23 5.35 111.47 5.49Q111.72 5.64 111.75 5.74L111.75 5.74Q111.55 6.13 111.29 6.92Q111.02 7.70 110.75 8.69Q110.47 9.69 110.23 10.80Q109.98 11.91 109.84 12.94L109.84 12.94Q110.17 12.17 110.59 11.33Q111.02 10.50 111.50 9.68Q111.97 8.86 112.47 8.09Q112.97 7.32 113.44 6.69Q113.92 6.05 114.33 5.57Q114.74 5.10 115.07 4.87L115.07 4.87Q115.26 4.87 115.59 4.97Q115.92 5.07 116.23 5.21Q116.55 5.35 116.79 5.49Q117.04 5.64 117.07 5.74L117.07 5.74Q116.62 6.54 116.28 7.69Q115.95 8.83 115.72 10.09Q115.49 11.35 115.37 12.59Q115.25 13.83 115.25 14.81L115.25 14.81Q115.25 15.13 115.25 15.48Q115.25 15.83 115.28 16.21L115.28 16.21Q115.08 16.21 114.81 16.16Q114.53 16.11 114.27 16.03Q114.02 15.95 113.81 15.84Q113.60 15.74 113.51 15.61L113.51 15.61Q113.50 15.41 113.50 15.20Q113.50 14.99 113.50 14.80L113.50 14.80Q113.50 13.23 113.73 11.52Q113.96 9.81 114.49 7.83L114.49 7.83Q114.55 7.63 114.62 7.29Q114.69 6.96 114.76 6.59L114.76 6.59Q114.37 6.79 113.87 7.34Q113.37 7.90 112.86 8.69Q112.35 9.48 111.85 10.44Q111.36 11.41 110.96 12.41Q110.56 13.41 110.28 14.40Q110.01 15.39 109.96 16.21ZM124.70 14.38L124.70 14.38Q124.70 13.87 124.86 13.07Q125.02 12.26 125.28 11.33Q125.54 10.40 125.87 9.43Q126.21 8.46 126.56 7.60Q126.91 6.75 127.25 6.10Q127.58 5.46 127.85 5.18L127.85 5.18Q127.99 5.19 128.22 5.29Q128.45 5.38 128.69 5.50Q128.93 5.63 129.12 5.78Q129.32 5.92 129.37 6.05L129.37 6.05Q128.97 6.41 128.57 7.15Q128.17 7.88 127.80 8.82Q127.43 9.76 127.11 10.80Q126.78 11.84 126.55 12.82Q126.31 13.80 126.17 14.64Q126.04 15.48 126.04 16.00L126.04 16.00Q126.04 16.24 126.08 16.30L126.08 16.30Q125.78 16.28 125.64 16.19Q125.50 16.10 125.42 16.00Q125.34 15.89 125.28 15.79Q125.22 15.68 125.09 15.62L125.09 15.62Q124.99 15.58 124.92 15.43Q124.85 15.27 124.80 15.09Q124.75 14.90 124.73 14.70Q124.70 14.50 124.70 14.38ZM140.90 14.38L140.90 14.38Q141.25 14.98 141.25 15.54L141.25 15.54Q141.25 15.67 141.22 15.77Q141.20 15.88 141.18 15.99L141.18 15.99Q140.94 15.96 140.68 15.95Q140.42 15.93 140.14 15.93L140.14 15.93Q139.80 15.93 139.46 15.95Q139.12 15.97 138.70 16.02Q138.28 16.06 137.76 16.13Q137.24 16.20 136.56 16.31L136.56 16.31Q136.23 16.20 135.91 15.87Q135.59 15.54 135.31 15.08L135.31 15.08Q135.45 14.77 135.66 14.31Q135.87 13.86 136.15 13.21Q136.43 12.56 136.77 11.68Q137.12 10.81 137.51 9.66L137.51 9.66Q137.76 8.90 137.94 8.33Q138.12 7.76 138.27 7.22Q138.42 6.68 138.56 6.09Q138.70 5.50 138.87 4.73L138.87 4.73Q139.43 4.84 139.84 5.14Q140.25 5.45 140.63 6.01L140.63 6.01Q140.52 6.19 140.34 6.59Q140.15 7 139.91 7.58Q139.66 8.16 139.37 8.90Q139.08 9.63 138.75 10.47L138.75 10.47Q138.45 11.30 138.15 12.03Q137.86 12.75 137.63 13.34Q137.40 13.93 137.26 14.35Q137.12 14.77 137.12 14.98L137.12 14.98Q137.34 14.97 137.52 14.95Q137.70 14.94 137.90 14.90Q138.10 14.87 138.33 14.82Q138.56 14.77 138.88 14.69L138.88 14.69Q139.16 14.62 139.40 14.57Q139.64 14.52 139.87 14.48Q140.10 14.45 140.34 14.43Q140.59 14.41 140.90 14.38ZM155.32 9.21L155.32 9.21Q155.78 9.21 156.04 9.46Q156.30 9.72 156.30 10.16L156.30 10.16Q156.30 10.28 156.28 10.39Q156.25 10.51 156.23 10.60L156.23 10.60Q156.04 10.57 155.82 10.55Q155.60 10.53 155.29 10.53L155.29 10.53Q154.69 10.53 154.07 10.63Q153.45 10.74 152.89 10.81L152.89 10.81Q152.57 11.55 152.31 12.24Q152.04 12.94 151.85 13.51Q151.66 14.08 151.56 14.50Q151.45 14.92 151.44 15.13L151.44 15.13Q152.57 14.90 153.73 14.73Q154.88 14.56 156.16 14.48L156.16 14.48Q156.31 14.71 156.41 14.99Q156.52 15.27 156.52 15.60L156.52 15.60Q156.52 15.68 156.52 15.78Q156.52 15.88 156.49 15.97L156.49 15.97Q156.10 15.96 155.67 15.95Q155.23 15.95 154.53 15.95L154.53 15.95Q154.07 15.95 153.66 15.97Q153.24 15.99 152.82 16.03Q152.40 16.07 151.94 16.14Q151.47 16.21 150.88 16.31L150.88 16.31Q150.23 16.06 149.63 15.08L149.63 15.08Q149.87 14.57 150.30 13.54Q150.72 12.52 151.38 10.79L151.38 10.79Q150.75 10.60 150.56 10.09L150.56 10.09Q150.63 10.02 150.96 9.92Q151.30 9.81 151.79 9.70L151.79 9.70Q152.00 9.16 152.15 8.75Q152.29 8.34 152.40 7.99Q152.52 7.63 152.61 7.29Q152.70 6.94 152.78 6.54L152.78 6.54Q152.29 6.51 152.01 6.27Q151.73 6.02 151.73 5.63L151.73 5.63Q151.73 5.52 151.77 5.36Q151.80 5.21 151.84 5.10L151.84 5.10Q152.12 5.14 152.38 5.15Q152.64 5.17 153.06 5.17L153.06 5.17Q153.94 5.17 154.71 5.12Q155.48 5.07 156.11 5.01Q156.73 4.96 157.18 4.91Q157.63 4.86 157.86 4.86L157.86 4.86Q158.19 4.86 158.44 5.19Q158.69 5.53 158.82 6.15L158.82 6.15Q158.38 6.10 158.11 6.09Q157.84 6.08 157.63 6.08L157.63 6.08Q156.86 6.08 156.22 6.15Q155.58 6.23 154.99 6.31L154.99 6.31Q154.91 6.44 154.81 6.64Q154.70 6.83 154.53 7.18Q154.36 7.53 154.12 8.06Q153.87 8.60 153.52 9.39L153.52 9.39Q154.06 9.31 154.53 9.26Q154.99 9.21 155.32 9.21ZM165.40 15.71L165.40 15.71Q165.17 15.68 164.93 15.52Q164.68 15.36 164.61 15.16L164.61 15.16Q164.61 14.99 164.66 14.73Q164.71 14.46 164.78 14.19Q164.85 13.92 164.92 13.67Q164.99 13.43 165.02 13.30L165.02 13.30Q165.19 13.30 165.45 13.38Q165.70 13.47 165.98 13.62Q166.25 13.76 166.50 13.95Q166.74 14.14 166.87 14.34L166.87 14.34Q166.74 14.62 166.54 14.87Q166.35 15.12 166.13 15.31Q165.91 15.50 165.72 15.60Q165.52 15.71 165.40 15.71ZM195.29 7.46L195.29 7.46Q195.29 8.13 194.99 8.73Q194.68 9.32 194.15 9.79Q193.62 10.26 192.91 10.58Q192.19 10.91 191.35 11.02L191.35 11.02Q191.56 11.65 191.86 12.31Q192.16 12.98 192.51 13.59Q192.86 14.21 193.24 14.73Q193.62 15.25 193.98 15.58L193.98 15.58Q193.91 15.72 193.78 15.86Q193.65 16.00 193.47 16.12Q193.30 16.24 193.11 16.32Q192.92 16.39 192.75 16.39L192.75 16.39Q192.44 16.39 192.16 16.10Q191.88 15.81 191.60 15.17Q191.31 14.53 191.00 13.52Q190.68 12.50 190.30 11.07L190.30 11.07Q190.15 11.07 189.99 11.07Q189.84 11.07 189.76 11.05L189.76 11.05Q189.66 10.99 189.55 10.85L189.55 10.85Q189.17 11.66 188.87 12.38Q188.58 13.09 188.35 13.76Q188.12 14.42 187.94 15.04Q187.77 15.67 187.64 16.31L187.64 16.31Q187.17 16.20 186.82 15.90Q186.47 15.61 186.16 15.08L186.16 15.08Q186.21 14.95 186.28 14.83Q186.34 14.71 186.44 14.50Q186.54 14.28 186.68 13.94Q186.83 13.61 187.08 13.05Q187.32 12.49 187.66 11.68Q188.01 10.86 188.50 9.70L188.50 9.70Q188.72 9.18 188.88 8.79Q189.04 8.40 189.17 8.04Q189.29 7.69 189.40 7.33Q189.50 6.97 189.62 6.51L189.62 6.51Q188.97 6.73 188.42 7.01Q187.87 7.28 187.50 7.59L187.50 7.59Q187.38 7.50 187.24 7.34Q187.11 7.17 187.00 6.96Q186.89 6.76 186.80 6.55Q186.72 6.34 186.70 6.17L186.70 6.17Q187.12 5.89 187.73 5.66Q188.34 5.42 189.03 5.24Q189.71 5.07 190.43 4.97Q191.14 4.87 191.76 4.87L191.76 4.87Q193.44 4.87 194.36 5.56Q195.29 6.26 195.29 7.46ZM191.70 6.02L191.87 6.29Q191.77 6.41 191.56 6.79Q191.35 7.17 191.08 7.69Q190.81 8.22 190.50 8.83Q190.20 9.45 189.92 10.05L189.92 10.05Q190.97 10.05 191.86 9.86Q192.74 9.66 193.38 9.30Q194.03 8.95 194.38 8.46Q194.74 7.98 194.74 7.39L194.74 7.39Q194.74 6.69 194.24 6.32Q193.73 5.95 192.68 5.95L192.68 5.95Q192.44 5.95 192.21 5.97Q191.97 5.99 191.70 6.02L191.70 6.02ZM208.11 9.21L208.11 9.21Q208.57 9.21 208.83 9.46Q209.09 9.72 209.09 10.16L209.09 10.16Q209.09 10.28 209.07 10.39Q209.05 10.51 209.02 10.60L209.02 10.60Q208.84 10.57 208.61 10.55Q208.39 10.53 208.08 10.53L208.08 10.53Q207.48 10.53 206.86 10.63Q206.25 10.74 205.69 10.81L205.69 10.81Q205.37 11.55 205.10 12.24Q204.83 12.94 204.65 13.51Q204.46 14.08 204.35 14.50Q204.25 14.92 204.23 15.13L204.23 15.13Q205.37 14.90 206.52 14.73Q207.68 14.56 208.95 14.48L208.95 14.48Q209.10 14.71 209.21 14.99Q209.31 15.27 209.31 15.60L209.31 15.60Q209.31 15.68 209.31 15.78Q209.31 15.88 209.29 15.97L209.29 15.97Q208.89 15.96 208.46 15.95Q208.03 15.95 207.33 15.95L207.33 15.95Q206.86 15.95 206.45 15.97Q206.04 15.99 205.62 16.03Q205.20 16.07 204.73 16.14Q204.26 16.21 203.67 16.31L203.67 16.31Q203.03 16.06 202.43 15.08L202.43 15.08Q202.66 14.57 203.09 13.54Q203.52 12.52 204.18 10.79L204.18 10.79Q203.55 10.60 203.35 10.09L203.35 10.09Q203.42 10.02 203.76 9.92Q204.09 9.81 204.58 9.70L204.58 9.70Q204.79 9.16 204.94 8.75Q205.09 8.34 205.20 7.99Q205.31 7.63 205.40 7.29Q205.49 6.94 205.58 6.54L205.58 6.54Q205.09 6.51 204.81 6.27Q204.53 6.02 204.53 5.63L204.53 5.63Q204.53 5.52 204.56 5.36Q204.60 5.21 204.64 5.10L204.64 5.10Q204.92 5.14 205.18 5.15Q205.44 5.17 205.86 5.17L205.86 5.17Q206.74 5.17 207.51 5.12Q208.28 5.07 208.90 5.01Q209.52 4.96 209.97 4.91Q210.42 4.86 210.66 4.86L210.66 4.86Q210.98 4.86 211.23 5.19Q211.48 5.53 211.61 6.15L211.61 6.15Q211.18 6.10 210.90 6.09Q210.63 6.08 210.42 6.08L210.42 6.08Q209.65 6.08 209.01 6.15Q208.38 6.23 207.79 6.31L207.79 6.31Q207.70 6.44 207.60 6.64Q207.49 6.83 207.33 7.18Q207.16 7.53 206.91 8.06Q206.67 8.60 206.32 9.39L206.32 9.39Q206.85 9.31 207.32 9.26Q207.79 9.21 208.11 9.21ZM227.39 7.63L227.39 7.63Q227.39 8.40 227.00 9.10Q226.62 9.80 225.97 10.32Q225.32 10.85 224.44 11.16Q223.57 11.47 222.59 11.47L222.59 11.47Q222.24 11.47 222.03 11.38Q221.83 11.28 221.58 11.02L221.58 11.02Q220.88 12.54 220.44 13.82Q220.00 15.11 219.74 16.31L219.74 16.31Q219.21 16.18 218.88 15.87Q218.54 15.55 218.26 15.08L218.26 15.08Q218.40 14.81 218.60 14.38Q218.79 13.94 219.07 13.31Q219.35 12.67 219.72 11.78Q220.09 10.89 220.60 9.70L220.60 9.70Q220.82 9.16 220.99 8.75Q221.16 8.34 221.28 7.99Q221.41 7.63 221.52 7.28Q221.62 6.93 221.73 6.51L221.73 6.51Q221.07 6.72 220.52 7Q219.97 7.28 219.60 7.59L219.60 7.59Q219.48 7.50 219.35 7.34Q219.21 7.17 219.10 6.96Q218.99 6.76 218.90 6.55Q218.82 6.34 218.81 6.17L218.81 6.17Q219.21 5.89 219.81 5.66Q220.42 5.42 221.10 5.24Q221.79 5.07 222.52 4.97Q223.26 4.87 223.93 4.87L223.93 4.87Q224.73 4.87 225.37 5.07Q226.02 5.28 226.46 5.64Q226.91 6.01 227.15 6.51Q227.39 7.01 227.39 7.63ZM224.90 5.95L224.90 5.95Q224.36 5.95 223.80 6.03L223.80 6.03L223.97 6.29Q223.83 6.47 223.62 6.83Q223.41 7.20 223.16 7.71Q222.91 8.22 222.61 8.85Q222.31 9.48 221.97 10.18L221.97 10.18Q223.06 10.18 223.96 9.97Q224.85 9.77 225.49 9.41Q226.13 9.06 226.49 8.58Q226.84 8.11 226.84 7.56L226.84 7.56Q226.84 6.83 226.35 6.39Q225.86 5.95 224.90 5.95ZM239.62 9.21L239.62 9.21Q240.09 9.21 240.35 9.46Q240.60 9.72 240.60 10.16L240.60 10.16Q240.60 10.28 240.58 10.39Q240.56 10.51 240.53 10.60L240.53 10.60Q240.35 10.57 240.13 10.55Q239.90 10.53 239.60 10.53L239.60 10.53Q238.99 10.53 238.38 10.63Q237.76 10.74 237.20 10.81L237.20 10.81Q236.88 11.55 236.61 12.24Q236.35 12.94 236.16 13.51Q235.97 14.08 235.87 14.50Q235.76 14.92 235.75 15.13L235.75 15.13Q236.88 14.90 238.04 14.73Q239.19 14.56 240.46 14.48L240.46 14.48Q240.62 14.71 240.72 14.99Q240.83 15.27 240.83 15.60L240.83 15.60Q240.83 15.68 240.83 15.78Q240.83 15.88 240.80 15.97L240.80 15.97Q240.41 15.96 239.97 15.95Q239.54 15.95 238.84 15.95L238.84 15.95Q238.38 15.95 237.97 15.97Q237.55 15.99 237.13 16.03Q236.71 16.07 236.24 16.14Q235.77 16.21 235.19 16.31L235.19 16.31Q234.54 16.06 233.94 15.08L233.94 15.08Q234.18 14.57 234.61 13.54Q235.03 12.52 235.69 10.79L235.69 10.79Q235.06 10.60 234.86 10.09L234.86 10.09Q234.93 10.02 235.27 9.92Q235.61 9.81 236.10 9.70L236.10 9.70Q236.31 9.16 236.45 8.75Q236.60 8.34 236.71 7.99Q236.82 7.63 236.92 7.29Q237.01 6.94 237.09 6.54L237.09 6.54Q236.60 6.51 236.32 6.27Q236.04 6.02 236.04 5.63L236.04 5.63Q236.04 5.52 236.08 5.36Q236.11 5.21 236.15 5.10L236.15 5.10Q236.43 5.14 236.69 5.15Q236.95 5.17 237.37 5.17L237.37 5.17Q238.25 5.17 239.02 5.12Q239.79 5.07 240.42 5.01Q241.04 4.96 241.49 4.91Q241.93 4.86 242.17 4.86L242.17 4.86Q242.49 4.86 242.75 5.19Q243.00 5.53 243.12 6.15L243.12 6.15Q242.69 6.10 242.42 6.09Q242.14 6.08 241.93 6.08L241.93 6.08Q241.16 6.08 240.53 6.15Q239.89 6.23 239.30 6.31L239.30 6.31Q239.22 6.44 239.11 6.64Q239.01 6.83 238.84 7.18Q238.67 7.53 238.43 8.06Q238.18 8.60 237.83 9.39L237.83 9.39Q238.36 9.31 238.83 9.26Q239.30 9.21 239.62 9.21ZM250.00 16.24L250.00 16.24Q249.33 16.04 249.07 15.85Q248.81 15.65 248.81 15.36L248.81 15.36Q248.81 15.13 248.93 14.73Q249.06 14.32 249.31 13.77Q249.55 13.22 249.89 12.54Q250.24 11.87 250.67 11.10L250.67 11.10Q250.31 11.09 250.02 11.08Q249.73 11.07 249.55 11.07L249.55 11.07Q249.63 10.86 250.03 10.71Q250.42 10.56 251.06 10.44L251.06 10.44Q251.61 9.53 252.23 8.71Q252.85 7.88 253.48 7.19Q254.11 6.50 254.74 5.97Q255.37 5.45 255.95 5.14L255.95 5.14Q255.96 5.04 255.97 4.97Q255.98 4.90 255.98 4.87L255.98 4.87Q256.17 4.87 256.50 4.97Q256.83 5.07 257.15 5.21Q257.46 5.35 257.71 5.49Q257.95 5.64 257.98 5.74L257.98 5.74Q257.52 6.55 257.07 8.17Q256.62 9.79 256.33 12.04L256.33 12.04Q256.26 12.60 256.21 13.31Q256.16 14.03 256.16 14.91L256.16 14.91Q256.16 15.22 256.16 15.54Q256.16 15.86 256.19 16.21L256.19 16.21Q256.16 16.23 256.13 16.23Q256.10 16.23 256.02 16.23L256.02 16.23Q255.82 16.23 255.56 16.16Q255.30 16.10 255.06 16.01Q254.81 15.92 254.64 15.81Q254.46 15.69 254.42 15.61L254.42 15.61Q254.41 15.43 254.41 15.25Q254.41 15.08 254.41 14.88L254.41 14.88Q254.41 14.01 254.47 13.12Q254.53 12.22 254.69 11.27L254.69 11.27Q254.49 11.26 254.17 11.23Q253.85 11.21 253.45 11.20Q253.05 11.19 252.60 11.16Q252.14 11.14 251.71 11.13L251.71 11.13Q251.37 11.76 251.08 12.38Q250.78 13.01 250.57 13.64L250.57 13.64Q250.33 14.31 250.19 14.98Q250.04 15.65 250.00 16.24ZM255.40 7.83L255.40 7.83Q255.46 7.63 255.54 7.29Q255.61 6.94 255.68 6.57L255.68 6.57Q255.33 6.69 254.91 7.03Q254.48 7.36 254.02 7.86Q253.57 8.36 253.10 8.98Q252.63 9.60 252.20 10.30L252.20 10.30Q253.37 10.21 254.87 10.18L254.87 10.18Q254.98 9.59 255.12 9.01Q255.25 8.43 255.40 7.83ZM267.55 6.69L267.55 6.69Q266.99 6.69 266.69 6.38Q266.39 6.06 266.39 5.61L266.39 5.61Q266.39 5.50 266.43 5.35Q266.46 5.19 266.52 5.08L266.52 5.08Q266.70 5.17 267.06 5.20Q267.41 5.24 267.89 5.24L267.89 5.24Q268.60 5.24 269.51 5.17Q270.41 5.11 271.24 5.04Q272.06 4.97 272.69 4.91Q273.32 4.84 273.50 4.84L273.50 4.84Q274.02 4.84 274.25 5.23Q274.48 5.61 274.60 6.26L274.60 6.26Q274.23 6.23 273.88 6.21Q273.52 6.19 273.27 6.19L273.27 6.19Q272.82 6.19 272.36 6.22Q271.91 6.24 271.45 6.30L271.45 6.30Q271.25 6.71 271.01 7.26Q270.77 7.81 270.54 8.41Q270.31 9.02 270.10 9.61Q269.89 10.21 269.74 10.68L269.74 10.68Q269.43 11.61 269.20 12.39Q268.97 13.17 268.79 13.85Q268.62 14.53 268.49 15.15Q268.37 15.76 268.27 16.35L268.27 16.35Q267.33 16.21 266.70 15.18L266.70 15.18Q266.81 14.74 266.97 14.23Q267.13 13.72 267.35 13.07Q267.57 12.42 267.86 11.59Q268.16 10.77 268.53 9.72L268.53 9.72Q268.67 9.32 268.83 8.90Q268.98 8.47 269.13 8.05Q269.28 7.63 269.39 7.24Q269.51 6.85 269.60 6.52L269.60 6.52Q269.01 6.59 268.49 6.64Q267.96 6.69 267.55 6.69ZM279.61 15.71L279.61 15.71Q279.38 15.68 279.14 15.52Q278.89 15.36 278.82 15.16L278.82 15.16Q278.82 14.99 278.87 14.73Q278.92 14.46 278.99 14.19Q279.06 13.92 279.13 13.67Q279.20 13.43 279.23 13.30L279.23 13.30Q279.40 13.30 279.66 13.38Q279.92 13.47 280.19 13.62Q280.46 13.76 280.71 13.95Q280.95 14.14 281.08 14.34L281.08 14.34Q280.95 14.62 280.76 14.87Q280.56 15.12 280.34 15.31Q280.13 15.50 279.93 15.60Q279.73 15.71 279.61 15.71Z"></path></g></svg>